classDiagram
    direction LR

    class Job {
        Quantity: Integer
        OrderTimestamp: Long
        DeliverTimestamp: Long
    }

    class Type {
        Name: String
    }

    class Object {
        Name: String
        OwnMass: Double
        OwnVolume: Double
        LoadMass: Double
        LoadVolume: Double
    }

    class Charger {
        CurrentSpeed: Double
        MaximumSpeed: Double
    }

    class Operation {
        Name: String
        UnitDuration: Double
    }

    class Input {
        UnitQuantity: Double
        SetupDuration: Double
        TeardownDuration: Double
    }

    class Output {
        UnitQuantity: Double
    }

    class Location {
        Distance: Double
    }

    class Segment {
        Lanes: Integer
        Speed: Double
    }

    class Intersection {
        Name: String
        Latitude: Double
        Longitude: Double
        Elevation: Double
    }

    class Mover {
        CurrentSpeed: Double
        MaximumSpeed: Double
    }

    class Vehicle {
        ChargeCapacity: Double
        ChargeLevel: Double
    }

    Job "*" --> "1" Type:Has

    Segment --> "1" Intersection:Starting at
    Segment --> "1" Intersection:Ending at

    Location "*" --> "1" Segment:Located on

    Operation "1" --> "*" Input:Seizes
    Operation "1" --> "*" Input:Consumes
    Operation "1" --> "*" Output:Produces

    Input "*" --> "1" Type:Has

    Output "*" --> "1" Type:Has

    Charger --|> Object:Is a
    
    Vehicle --|> Mover:Is a
    Vehicle "1" <-- "1" Charger:Charges

    Mover --|> Object:Is a

    Object "*" --> "1" Location:Located at
    Object "*" --> "1" Object:Located inside

    Type "1" <-- "*" Object:Has